<svg width="20" height="20" viewBox="0 0 20 20" fill="none" xmlns="http://www.w3.org/2000/svg">
<path d="M10.6 12.4C11.0774 12.4 11.5352 12.5897 11.8728 12.9272C12.2104 13.2648 12.4 13.7226 12.4 14.2V14.8C12.4 17.1652 10.168 19.6 6.4 19.6C2.632 19.6 0.400002 17.1652 0.400002 14.8V14.2C0.400002 13.7226 0.589644 13.2648 0.927209 12.9272C1.26477 12.5897 1.72261 12.4 2.2 12.4H10.6ZM10.6 13.6H2.2C2.04087 13.6 1.88826 13.6632 1.77574 13.7758C1.66322 13.8883 1.6 14.0409 1.6 14.2V14.8C1.6 16.5256 3.3184 18.4 6.4 18.4C9.4816 18.4 11.2 16.5256 11.2 14.8V14.2C11.2 14.0409 11.1368 13.8883 11.0243 13.7758C10.9117 13.6632 10.7591 13.6 10.6 13.6ZM6.4 4.60002C7.27522 4.60002 8.11458 4.9477 8.73345 5.56657C9.35232 6.18544 9.7 7.02481 9.7 7.90002C9.7 8.77524 9.35232 9.61461 8.73345 10.2335C8.11458 10.8523 7.27522 11.2 6.4 11.2C5.52479 11.2 4.68542 10.8523 4.06655 10.2335C3.44768 9.61461 3.1 8.77524 3.1 7.90002C3.1 7.02481 3.44768 6.18544 4.06655 5.56657C4.68542 4.9477 5.52479 4.60002 6.4 4.60002ZM17.2 0.400024C17.8053 0.400136 18.3882 0.62895 18.8319 1.04063C19.2756 1.45231 19.5474 2.01644 19.5928 2.62002L19.6 2.80002V5.20002C19.6002 5.80552 19.3715 6.3887 18.9598 6.83268C18.5481 7.27666 17.9838 7.54861 17.38 7.59402L17.2 7.60002H15.3988L13.9612 9.52003C13.3252 10.3672 12.0364 10.024 11.8288 9.06882L11.8084 8.93563L11.8 8.80002V7.52202L11.7064 7.49802C11.2749 7.36773 10.8887 7.11853 10.5923 6.77896C10.2958 6.4394 10.1009 6.0232 10.03 5.57802L10.006 5.37882L10 5.20002V2.80002C9.99981 2.19453 10.2285 1.61134 10.6402 1.16737C11.0519 0.723389 11.6162 0.451436 12.22 0.406025L12.4 0.400024H17.2ZM6.4 5.80002C6.12423 5.80002 5.85115 5.85434 5.59637 5.95988C5.34158 6.06541 5.11008 6.2201 4.91508 6.4151C4.72007 6.6101 4.56539 6.84161 4.45985 7.09639C4.35432 7.35117 4.3 7.62425 4.3 7.90002C4.3 8.1758 4.35432 8.44888 4.45985 8.70366C4.56539 8.95844 4.72007 9.18995 4.91508 9.38495C5.11008 9.57995 5.34158 9.73464 5.59637 9.84017C5.85115 9.94571 6.12423 10 6.4 10C6.95696 10 7.4911 9.77878 7.88493 9.38495C8.27875 8.99112 8.5 8.45698 8.5 7.90002C8.5 7.34307 8.27875 6.80893 7.88493 6.4151C7.4911 6.02127 6.95696 5.80002 6.4 5.80002ZM17.2 1.60002H12.4C12.1061 1.60006 11.8224 1.70797 11.6028 1.90328C11.3831 2.09859 11.2428 2.36772 11.2084 2.65962L11.2 2.80002V5.20002C11.2 5.49394 11.3079 5.77763 11.5033 5.99727C11.6986 6.21691 11.9677 6.35724 12.2596 6.39162L12.4 6.40002H13V8.80002L14.8 6.40002H17.2C17.4939 6.39999 17.7776 6.29208 17.9972 6.09677C18.2169 5.90146 18.3572 5.63233 18.3916 5.34042L18.4 5.20002V2.80002C18.4 2.5061 18.2921 2.22242 18.0967 2.00278C17.9014 1.78314 17.6323 1.64281 17.3404 1.60842L17.2 1.60002Z" fill="black"/>
</svg>
